<svg width="24" height="24" viewBox="0 0 24 24" fill="none" xmlns="http://www.w3.org/2000/svg">
<g clip-path="url(#clip0_184_4263)">
<path d="M8.57544 2.11084C9.47451 2.11096 10.3245 2.44916 10.9749 3.02783C11.0329 3.01606 11.0931 3.01125 11.1545 3.01123H16.5549C18.0387 3.01143 19.234 4.19764 19.2639 5.67334C19.2641 5.67929 19.2649 5.68595 19.2649 5.69189V5.82959C20.8135 6.23495 21.9552 7.63906 21.9553 9.31104V18.311C21.9553 20.3023 20.3276 21.9115 18.345 21.9116H5.75513C3.76028 21.9116 2.14478 20.3002 2.14478 18.311V5.71143C2.14478 3.72006 3.77244 2.11087 5.75513 2.11084H8.57544ZM5.75513 3.91162C4.75787 3.91165 3.94556 4.72284 3.94556 5.71143V18.311C3.94556 19.3018 4.75003 20.1108 5.75513 20.1108H18.345C19.3421 20.1107 20.1555 19.2996 20.1555 18.311V9.31104C20.1554 8.32044 19.3499 7.51136 18.345 7.51123H12.6155C11.9318 7.51123 11.3164 7.12685 11.0051 6.52393L11.0012 6.51611L10.1917 4.90674C9.90353 4.33723 9.33211 3.96059 8.70239 3.91553L8.57544 3.91162H5.75513ZM11.1555 15.6108C11.6523 15.6112 12.0549 16.0144 12.0549 16.5112C12.0549 17.0081 11.6523 17.4113 11.1555 17.4116H7.54517C7.04811 17.4116 6.64478 17.0083 6.64478 16.5112C6.64478 16.0142 7.04811 15.6108 7.54517 15.6108H11.1555ZM12.6077 5.70264C12.6093 5.70529 12.6105 5.70737 12.6116 5.7085C12.613 5.71002 12.6141 5.71116 12.6145 5.71143H17.4641V5.69189C17.4449 5.1965 17.0449 4.8122 16.5549 4.81201H12.1594L12.6077 5.70264Z" fill="#0088FF"/>
</g>
<defs>
<clipPath id="clip0_184_4263">
<rect width="24" height="24" fill="white"/>
</clipPath>
</defs>
</svg>
