<svg width="24" height="24" viewBox="0 0 24 24" fill="none" xmlns="http://www.w3.org/2000/svg">
<g clip-path="url(#clip0_183_1396)">
<path d="M17.4501 10.2112C19.4401 10.2112 21.0501 8.60121 21.0501 6.61121C21.0501 4.62121 19.4401 3.01123 17.4501 3.01123C15.4601 3.01123 13.8501 4.62121 13.8501 6.61121C13.8501 8.60121 15.4601 10.2112 17.4501 10.2112Z" stroke="black" stroke-width="1.8" stroke-miterlimit="10" stroke-linecap="round"/>
<path d="M6.65005 10.2112C8.64005 10.2112 10.25 8.60121 10.25 6.61121C10.25 4.62121 8.64005 3.01123 6.65005 3.01123C4.66005 3.01123 3.05005 4.62121 3.05005 6.61121C3.05005 8.60121 4.66005 10.2112 6.65005 10.2112Z" stroke="black" stroke-width="1.8" stroke-miterlimit="10" stroke-linecap="round"/>
<path d="M17.4501 21.0113C19.4401 21.0113 21.0501 19.4013 21.0501 17.4113C21.0501 15.4213 19.4401 13.8113 17.4501 13.8113C15.4601 13.8113 13.8501 15.4213 13.8501 17.4113C13.8501 19.4013 15.4601 21.0113 17.4501 21.0113Z" stroke="black" stroke-width="1.8" stroke-miterlimit="10" stroke-linecap="round"/>
<path d="M6.65005 21.0113C8.64005 21.0113 10.25 19.4013 10.25 17.4113C10.25 15.4213 8.64005 13.8113 6.65005 13.8113C4.66005 13.8113 3.05005 15.4213 3.05005 17.4113C3.05005 19.4013 4.66005 21.0113 6.65005 21.0113Z" stroke="black" stroke-width="1.8" stroke-miterlimit="10" stroke-linecap="round"/>
</g>
<defs>
<clipPath id="clip0_183_1396">
<rect width="24" height="24" fill="white"/>
</clipPath>
</defs>
</svg>
