<svg width="26" height="13" viewBox="0 0 26 13" fill="none" xmlns="http://www.w3.org/2000/svg">
<path d="M0.929688 7.88574V6.3252H4.2002C5.00814 6.3252 5.63346 6.11768 6.07617 5.70264C6.52441 5.28206 6.74854 4.70101 6.74854 3.95947V3.94287C6.74854 3.19027 6.52441 2.60645 6.07617 2.19141C5.63346 1.77637 5.00814 1.56885 4.2002 1.56885H0.929688V0H4.66504C5.45085 0 6.13981 0.166016 6.73193 0.498047C7.32959 0.824544 7.7972 1.28385 8.13477 1.87598C8.47233 2.46257 8.64111 3.146 8.64111 3.92627V3.94287C8.64111 4.72314 8.47233 5.41211 8.13477 6.00977C7.7972 6.60189 7.32959 7.06396 6.73193 7.396C6.13981 7.72249 5.45085 7.88574 4.66504 7.88574H0.929688ZM0 11.978V0H1.85938V11.978H0ZM10.8325 11.978V2.96338H12.6338V4.32471H12.7749C12.9354 3.84326 13.2176 3.46973 13.6216 3.2041C14.0311 2.93848 14.5347 2.80566 15.1323 2.80566C15.2817 2.80566 15.4284 2.81396 15.5723 2.83057C15.7161 2.84717 15.8324 2.86654 15.9209 2.88867V4.54883C15.7604 4.51562 15.5999 4.49072 15.4395 4.47412C15.2845 4.45752 15.1213 4.44922 14.9497 4.44922C14.4904 4.44922 14.0864 4.53776 13.7378 4.71484C13.3947 4.89193 13.1235 5.14095 12.9243 5.46191C12.7306 5.77734 12.6338 6.15365 12.6338 6.59082V11.978H10.8325ZM21.2417 12.1523C20.3618 12.1523 19.6009 11.9642 18.959 11.5879C18.3226 11.2116 17.8328 10.6748 17.4897 9.97754C17.1466 9.27474 16.9751 8.44189 16.9751 7.479V7.4624C16.9751 6.49398 17.1466 5.66113 17.4897 4.96387C17.8384 4.2666 18.3309 3.72982 18.9673 3.35352C19.6092 2.97721 20.3674 2.78906 21.2417 2.78906C22.1216 2.78906 22.8797 2.97721 23.5161 3.35352C24.1525 3.72428 24.6423 4.26107 24.9854 4.96387C25.334 5.66113 25.5083 6.49398 25.5083 7.4624V7.479C25.5083 8.44189 25.334 9.27474 24.9854 9.97754C24.6423 10.6748 24.1525 11.2116 23.5161 11.5879C22.8853 11.9642 22.1271 12.1523 21.2417 12.1523ZM21.2417 10.6416C21.7563 10.6416 22.1935 10.5171 22.5532 10.2681C22.9129 10.0135 23.1868 9.65104 23.375 9.18066C23.5632 8.71029 23.6572 8.14307 23.6572 7.479V7.4624C23.6572 6.79281 23.5632 6.22282 23.375 5.75244C23.1868 5.28206 22.9129 4.92236 22.5532 4.67334C22.1935 4.41878 21.7563 4.2915 21.2417 4.2915C20.7271 4.2915 20.2899 4.41878 19.9302 4.67334C19.5705 4.92236 19.2938 5.28206 19.1001 5.75244C18.9119 6.22282 18.8179 6.79281 18.8179 7.4624V7.479C18.8179 8.14307 18.9119 8.71029 19.1001 9.18066C19.2938 9.65104 19.5705 10.0135 19.9302 10.2681C20.2899 10.5171 20.7271 10.6416 21.2417 10.6416Z" fill="url(#paint0_linear_344_725)"/>
<defs>
<linearGradient id="paint0_linear_344_725" x1="25.1687" y1="2.05841" x2="-4.27523" y2="3.41018" gradientUnits="userSpaceOnUse">
<stop stop-color="#A537EB"/>
<stop offset="1" stop-color="#F36259"/>
</linearGradient>
</defs>
</svg>
