<svg width="24" height="24" viewBox="0 0 24 24" fill="none" xmlns="http://www.w3.org/2000/svg">
<g clip-path="url(#clip0_184_4237)">
<path d="M12.0672 14.4061C13.4072 14.4061 14.4972 13.3161 14.4972 11.9761C14.4972 10.6361 13.4072 9.54614 12.0672 9.54614C10.7272 9.54614 9.63721 10.6361 9.63721 11.9761C9.63721 13.3161 10.7272 14.4061 12.0672 14.4061Z" stroke="black" stroke-width="1.8" stroke-miterlimit="10"/>
<path d="M14.1872 4.6561C14.3672 5.2961 14.7871 5.8461 15.3571 6.1861C15.9271 6.5261 16.5971 6.62609 17.2371 6.46609C17.7071 6.32609 18.2171 6.3461 18.6771 6.5361C19.1371 6.7261 19.5172 7.06609 19.7672 7.49609C20.0172 7.92609 20.1071 8.4361 20.0371 8.9361C19.9671 9.4361 19.7271 9.8861 19.3671 10.2261C18.9071 10.7061 18.6472 11.3561 18.6472 12.0261C18.6472 12.6961 18.9071 13.3461 19.3671 13.8261C19.7271 14.1661 19.9571 14.6261 20.0371 15.1161C20.1071 15.6161 20.0172 16.1161 19.7672 16.5561C19.5172 16.9861 19.1371 17.3261 18.6771 17.5161C18.2171 17.7061 17.7171 17.7261 17.2371 17.5861C16.5971 17.4261 15.9172 17.5161 15.3372 17.8561C14.7672 18.1961 14.3371 18.7361 14.1571 19.3861C14.0271 19.8561 13.7471 20.2661 13.3671 20.5561C12.9871 20.8461 12.5171 21.0061 12.0371 21.0061C11.5571 21.0061 11.0972 20.8461 10.7072 20.5561C10.3272 20.2661 10.0471 19.8561 9.91714 19.3861C9.73714 18.7361 9.30714 18.1961 8.73714 17.8561C8.16714 17.5261 7.48718 17.4261 6.83718 17.5861C6.36718 17.7261 5.85713 17.6961 5.40713 17.5061C4.94713 17.3161 4.56717 16.9761 4.32717 16.5461C4.08717 16.1161 3.98716 15.6061 4.06716 15.1161C4.13716 14.6261 4.37713 14.1661 4.72713 13.8261C5.18713 13.3461 5.44717 12.6961 5.44717 12.0261C5.44717 11.3561 5.18713 10.7061 4.72713 10.2261C4.36713 9.8861 4.13716 9.4261 4.06716 8.9361C3.99716 8.4461 4.08717 7.9361 4.32717 7.5061C4.56717 7.0761 4.94713 6.73611 5.40713 6.54611C5.86713 6.35611 6.36718 6.32609 6.83718 6.46609C7.47718 6.62609 8.16714 6.52611 8.73714 6.19611C9.30714 5.85611 9.73714 5.30611 9.91714 4.66611C10.0371 4.19611 10.3172 3.7761 10.6972 3.4761C11.0772 3.1761 11.5571 3.01611 12.0371 3.01611C12.5171 3.01611 12.9972 3.1761 13.3772 3.4761C13.7572 3.7761 14.0371 4.19611 14.1571 4.66611L14.1872 4.6561Z" stroke="black" stroke-width="1.8" stroke-miterlimit="10" stroke-linecap="round"/>
</g>
<defs>
<clipPath id="clip0_184_4237">
<rect width="24" height="24" fill="white"/>
</clipPath>
</defs>
</svg>
